<svg width="85" height="85" viewBox="0 0 85 85" fill="none" xmlns="http://www.w3.org/2000/svg">
<path d="M32.6346 44.0596C33.9681 39.0832 39.0832 33.9681 44.0596 32.6344L75.0841 24.3203C80.0603 22.9866 83.0134 25.9397 81.6797 30.9159L73.3656 61.9404C72.0319 66.9168 66.9168 72.0319 61.9404 73.3654L30.9159 81.6797C25.9397 83.0134 22.9867 80.0603 24.3203 75.0839L32.6346 44.0596Z" fill="#e17100" fill-opacity="0.4"/>
<path d="M20.6346 32.0596C21.9681 27.0832 27.0832 21.9681 32.0596 20.6344L63.0841 12.3203C68.0603 10.9866 71.0134 13.9397 69.6797 18.9159L61.3656 49.9404C60.0319 54.9168 54.9168 60.0319 49.9404 61.3654L18.9159 69.6797C13.9397 71.0134 10.9867 68.0603 12.3203 63.0839L20.6346 32.0596Z" fill="#e17100" fill-opacity="0.8"/>
<path d="M8.6345 20.0595C9.96809 15.0833 15.0833 9.96809 20.0596 8.6345L51.084 0.320259C56.0603 -1.01333 59.0134 1.93965 57.6797 6.91595L49.3654 37.9405C48.032 42.9167 42.9168 48.0318 37.9404 49.3655L6.91595 57.6798C1.93966 59.0133 -1.01333 56.0604 0.320261 51.084L8.6345 20.0595Z" fill="#e17100"/>
</svg>
